<svg xmlns="http://www.w3.org/2000/svg" xmlns:xlink="http://www.w3.org/1999/xlink" viewBox="0 0 418.19 82.43"><defs><style>.cls-1{fill:#6b8fc9;}.cls-2{fill:#243571;}.cls-3{fill:url(#Gradiente_sem_nome_46);}.cls-4{fill:url(#Gradiente_sem_nome_46-2);}</style><linearGradient id="Gradiente_sem_nome_46" x1="31.9" y1="27.61" x2="67.4" y2="27.61" gradientUnits="userSpaceOnUse"><stop offset="0" stop-color="#6b8fc9"/><stop offset="1" stop-color="#243470"/></linearGradient><linearGradient id="Gradiente_sem_nome_46-2" x1="-4444.49" y1="-2.34" x2="-4479.99" y2="-2.34" gradientTransform="translate(-4444.92 45.24) rotate(180)" xlink:href="#Gradiente_sem_nome_46"/></defs><g id="Camada_2" data-name="Camada 2"><g id="Camada_1-2" data-name="Camada 1"><path class="cls-1" d="M277.67,53.67V48.59c0-3.18,1.65-5.24,5-5.24a4.4,4.4,0,0,1,4.2,2.35,1,1,0,0,1,.11.39.88.88,0,0,1-.87.87.82.82,0,0,1-.72-.37,2.9,2.9,0,0,0-2.72-1.48c-2.32,0-3.19,1.35-3.19,3.69v4.66c0,2.34.87,3.69,3.19,3.69a3.18,3.18,0,0,0,2.7-1.45.9.9,0,0,1,.78-.51.88.88,0,0,1,.87.87.89.89,0,0,1-.15.48,4.55,4.55,0,0,1-4.2,2.37C279.32,58.91,277.67,56.85,277.67,53.67Z"/><path class="cls-1" d="M290.61,53.67V48.59c0-3.18,1.65-5.24,5-5.24s5,2.06,5,5.24v5.08c0,3.18-1.65,5.24-5,5.24S290.61,56.85,290.61,53.67Zm8.23-.21V48.8c0-2.34-.84-3.69-3.19-3.69s-3.2,1.35-3.2,3.69v4.66c0,2.34.85,3.69,3.2,3.69S298.84,55.8,298.84,53.46Z"/><path class="cls-1" d="M305.59,58.06V44.2a.83.83,0,0,1,.82-.85.84.84,0,0,1,.76.48l7,11.17h.11V44.2a.85.85,0,1,1,1.69,0V58a.92.92,0,0,1-.95.87,1,1,0,0,1-.83-.45l-6.78-11h-.11v10.6a.85.85,0,1,1-1.69,0Z"/><path class="cls-1" d="M320.83,57.85a.94.94,0,0,1-.46-.79.86.86,0,0,1,1.35-.71,6.34,6.34,0,0,0,3.13.8c2.26,0,3-1.15,3-2.61,0-4.65-7.28-1.71-7.28-7.13,0-2.61,1.54-4.06,4.39-4.06a6.55,6.55,0,0,1,3.59,1,1,1,0,0,1,.45.74.83.83,0,0,1-.85.8,1.12,1.12,0,0,1-.54-.17,5.92,5.92,0,0,0-2.65-.67c-2.13,0-2.59,1.1-2.59,2.32,0,3.48,7.28,1.2,7.28,7,0,2.48-1.34,4.52-4.8,4.52A7.69,7.69,0,0,1,320.83,57.85Z"/><path class="cls-1" d="M334.18,54V44.24a.9.9,0,0,1,.91-.89.93.93,0,0,1,.94.93v9.46c0,2,.65,3.41,3.11,3.41s3.1-1.37,3.1-3.41v-9.5a.91.91,0,0,1,.92-.89.92.92,0,0,1,.93.93V54c0,3.17-1.67,4.95-4.95,4.95S334.18,57.13,334.18,54Z"/><path class="cls-1" d="M349.53,57.83V44.28a.92.92,0,0,1,.91-.93.94.94,0,0,1,.94.93V57h5.17a.85.85,0,1,1,0,1.7H350.4A.89.89,0,0,1,349.53,57.83Z"/><path class="cls-1" d="M362.47,57.93V45.22h-3.39a.82.82,0,0,1-.85-.85.84.84,0,0,1,.85-.85h8.6a.8.8,0,0,1,.85.85.82.82,0,0,1-.85.85h-3.37V58a.92.92,0,0,1-.93.91A.93.93,0,0,1,362.47,57.93Z"/><path class="cls-1" d="M371.82,53.67V48.59c0-3.18,1.65-5.24,5-5.24s5,2.06,5,5.24v5.08c0,3.18-1.65,5.24-5,5.24S371.82,56.85,371.82,53.67Zm8.24-.21V48.8c0-2.34-.85-3.69-3.2-3.69s-3.19,1.35-3.19,3.69v4.66c0,2.34.84,3.69,3.19,3.69S380.06,55.8,380.06,53.46Z"/><path class="cls-1" d="M386.8,58V44.46a.93.93,0,0,1,.91-.94H391c3.17,0,5.1,1.26,5.1,4.63,0,3-1.76,4-2.84,4.35l2.63,4.93a1.17,1.17,0,0,1,.15.55.92.92,0,0,1-.94.93,1,1,0,0,1-.89-.61l-2.78-5.52h-2.8V58a.93.93,0,0,1-1.85,0Zm4.32-6.91c2,0,3.11-.76,3.11-2.94s-1.17-2.93-3.34-2.93h-2.24v5.87Z"/><path class="cls-1" d="M401,58V44.28a.93.93,0,1,1,1.85,0V58A.93.93,0,0,1,401,58Z"/><path class="cls-1" d="M407.11,58a1.56,1.56,0,0,1,.08-.44l4.37-13.32a.89.89,0,0,1,.9-.72h.39a.89.89,0,0,1,.89.72l4.37,13.37a1.36,1.36,0,0,1,.08.39.91.91,0,0,1-.93.91.94.94,0,0,1-.89-.69l-1-3.26H410l-1,3.26a.94.94,0,0,1-.91.69A.9.9,0,0,1,407.11,58Zm7.78-4.76-2.2-7h-.08l-2.2,7Z"/><path class="cls-1" d="M277.26,78.11a4,4,0,0,1,2.95-4.26l-.67-.8a4.5,4.5,0,0,1-1.18-2.87c0-2.13,1.7-3.53,4-3.53a6.63,6.63,0,0,1,3.07.74.91.91,0,0,1,.5.79A.86.86,0,0,1,285,69a1.24,1.24,0,0,1-.46-.13,5.56,5.56,0,0,0-2.24-.5c-1.32,0-2.17.7-2.17,1.79a3,3,0,0,0,.95,2l4.77,5.5a8.56,8.56,0,0,0,.93-3,.83.83,0,0,1,.83-.74.78.78,0,0,1,.82.83A9.62,9.62,0,0,1,287,79.07l1.47,1.67a.94.94,0,0,1,.26.63.84.84,0,0,1-.87.85.9.9,0,0,1-.69-.33L286,80.5a4.92,4.92,0,0,1-4.2,1.72C279.23,82.22,277.26,80.76,277.26,78.11ZM285,79.26l-3.74-4.21a2.7,2.7,0,0,0-2.22,2.89,2.47,2.47,0,0,0,2.8,2.6A3.6,3.6,0,0,0,285,79.26Z"/><path class="cls-1" d="M299.59,81.15a.89.89,0,0,1-.46-.78.87.87,0,0,1,.87-.87.89.89,0,0,1,.48.15,6.34,6.34,0,0,0,3.13.81c2.26,0,3-1.15,3-2.61,0-4.65-7.28-1.72-7.28-7.13,0-2.61,1.54-4.07,4.39-4.07a6.43,6.43,0,0,1,3.58,1,.94.94,0,0,1,.46.74.83.83,0,0,1-.85.8,1.21,1.21,0,0,1-.54-.17,6,6,0,0,0-2.65-.68c-2.13,0-2.59,1.11-2.59,2.33,0,3.48,7.28,1.19,7.28,7,0,2.48-1.35,4.52-4.8,4.52A7.68,7.68,0,0,1,299.59,81.15Z"/><path class="cls-1" d="M312.94,81.31V67.59a.92.92,0,1,1,1.84,0V81.31a.93.93,0,0,1-.93.91A.91.91,0,0,1,312.94,81.31Z"/><path class="cls-1" d="M319.65,81.15a.9.9,0,0,1-.45-.78.87.87,0,0,1,.87-.87.89.89,0,0,1,.48.15,6.34,6.34,0,0,0,3.13.81c2.26,0,3-1.15,3-2.61,0-4.65-7.29-1.72-7.29-7.13,0-2.61,1.55-4.07,4.4-4.07a6.43,6.43,0,0,1,3.58,1,.94.94,0,0,1,.46.74.83.83,0,0,1-.85.8,1.21,1.21,0,0,1-.54-.17,6,6,0,0,0-2.65-.68c-2.13,0-2.59,1.11-2.59,2.33,0,3.48,7.28,1.19,7.28,7,0,2.48-1.35,4.52-4.8,4.52A7.74,7.74,0,0,1,319.65,81.15Z"/><path class="cls-1" d="M335.72,81.24V68.52h-3.39a.82.82,0,0,1-.85-.84.84.84,0,0,1,.85-.85h8.61a.8.8,0,0,1,.85.85.82.82,0,0,1-.85.84h-3.37V81.31a.92.92,0,0,1-.93.91A.94.94,0,0,1,335.72,81.24Z"/><path class="cls-1" d="M346.05,81.13V67.76a.93.93,0,0,1,1-.93h6.11a.85.85,0,1,1,0,1.69H347.9v4.92h4.76a.85.85,0,1,1,0,1.69H347.9v5.22h5.24a.85.85,0,1,1,0,1.69H347A.91.91,0,0,1,346.05,81.13Z"/><path class="cls-1" d="M358.55,81.37V67.44a.79.79,0,0,1,.79-.79.81.81,0,0,1,.71.48l4.74,9.31,4.72-9.31a.83.83,0,0,1,.74-.48.77.77,0,0,1,.78.77v14a.85.85,0,1,1-1.69,0v-10h-.11l-3.74,7.43a.79.79,0,0,1-1.39,0l-3.74-7.43h-.11v10a.85.85,0,1,1-1.7,0Z"/><path class="cls-1" d="M375.34,81.31a1.23,1.23,0,0,1,.09-.44l4.37-13.32a.88.88,0,0,1,.89-.72h.39a.88.88,0,0,1,.89.72l4.37,13.36a1.44,1.44,0,0,1,.09.4.91.91,0,0,1-.94.91,1,1,0,0,1-.89-.7l-1-3.26h-5.39l-1,3.26a1,1,0,0,1-.92.7A.9.9,0,0,1,375.34,81.31Zm7.78-4.76-2.19-7h-.09l-2.19,7Z"/><path class="cls-1" d="M390.17,81.15a.91.91,0,0,1-.46-.78.88.88,0,0,1,.87-.87.84.84,0,0,1,.48.15,6.34,6.34,0,0,0,3.13.81c2.26,0,3-1.15,3-2.61,0-4.65-7.28-1.72-7.28-7.13,0-2.61,1.54-4.07,4.39-4.07a6.46,6.46,0,0,1,3.59,1,.93.93,0,0,1,.45.74.82.82,0,0,1-.84.8,1.24,1.24,0,0,1-.55-.17,6,6,0,0,0-2.65-.68c-2.13,0-2.59,1.11-2.59,2.33,0,3.48,7.29,1.19,7.29,7,0,2.48-1.35,4.52-4.81,4.52A7.7,7.7,0,0,1,390.17,81.15Z"/><path class="cls-1" d="M103.93,64.23a7.53,7.53,0,0,1,9-9,7.45,7.45,0,0,1,5.6,5.6,7.52,7.52,0,1,1-14.64,3.44Z"/><path class="cls-2" d="M131,60.53c0-.22-.06-.43-.08-.64-.06-.42-.12-.84-.2-1.25s-.11-.5-.17-.75-.17-.72-.27-1.07-.17-.53-.26-.8-.22-.64-.35-1-.23-.54-.35-.81-.26-.57-.4-.84-.29-.56-.44-.83-.29-.48-.44-.72-.36-.58-.55-.85l-.42-.56c-.23-.31-.46-.61-.7-.91l-.2-.21a20.14,20.14,0,0,0-5-4.15l-.1-.07c-.46-.26-.92-.5-1.4-.73l-.17-.08c-.47-.22-.95-.42-1.45-.61l-.18-.06c-.5-.19-1-.35-1.52-.49l-.14,0a19.34,19.34,0,0,0-5.08-.69h0a21.24,21.24,0,0,0-3.37.26h0l-.52.09h0a17.85,17.85,0,0,0-2.75.71h0l-.15,0h0a17.64,17.64,0,0,0-2.78,1.28h0c-.41.24-.81.49-1.21.76h0l0,0a20.29,20.29,0,0,0-1.8,1.41,19.9,19.9,0,0,0-4.16,4.66A69.55,69.55,0,0,0,89.25,60l0,.06-1.56,3-.16.29-.5,1c-.38.71-.76,1.42-1.15,2.12l-.18.33c-.43.78-.88,1.56-1.34,2.31h0l-.08.13c-.48.8-1,1.59-1.5,2.35l-.11.14a13.9,13.9,0,0,1-3.18,2.71,15.64,15.64,0,0,1-7.52,2.13,14.11,14.11,0,0,1-13.48-9.91,14.43,14.43,0,0,1-.62-4.86c.35-7.66,7-13.54,14.68-13.54l10.26,0a2,2,0,0,0,2-2V44.81a2.07,2.07,0,0,0-2.07-2.07H72A19.73,19.73,0,0,0,52.23,62.46h0A19.72,19.72,0,0,0,72,82.19a20,20,0,0,0,8.55-1.92,16.93,16.93,0,0,0,6.21-4.61c.13-.14.27-.26.39-.41h0c.45-.6.87-1.23,1.29-1.87h0c.21-.32.4-.65.59-1h0l0-.07c.44-.75.88-1.51,1.3-2.29l0,0,.3-.57h0c.29-.55.58-1.1.86-1.66l.09-.18,0-.07c.67-1.33,1.33-2.68,2-4,.23-.47.47-.94.71-1.4l.12-.24a41.49,41.49,0,0,1,5.2-8.19h0c.43-.49.87-1,1.33-1.39h0A16.84,16.84,0,0,1,102.47,51l.59-.43c.27-.18.54-.36.81-.52s.79-.44,1.2-.64c.25-.12.51-.22.77-.32q.64-.26,1.32-.45c.22-.07.44-.12.67-.18a14.52,14.52,0,0,1,1.94-.34h0c.42,0,.84-.06,1.27-.06h0a13.92,13.92,0,0,1,3.44.44A14.42,14.42,0,0,1,119.77,51l.09.07c.26.2.52.42.77.64l.19.18c.23.21.46.43.67.66a2.62,2.62,0,0,1,.22.25c.21.22.4.44.59.68l.21.28a13.25,13.25,0,0,1,.89,1.32l.25.41c.1.18.19.37.28.56s.21.41.3.63.15.36.22.54.18.46.26.7.11.36.16.54.14.51.2.77l.12.53c0,.29.09.59.13.88s.05.3.06.45c0,.46.07.91.07,1.38A14.39,14.39,0,0,1,97.14,66.1a.48.48,0,0,0-.89-.1c-.74,1.47-2,3.89-2.56,5.07a1.41,1.41,0,0,0,0,1.34,20,20,0,0,0,37.34-9.94A17.74,17.74,0,0,0,131,60.53Z"/><path class="cls-2" d="M191.4,43.07H180.61A11.32,11.32,0,0,0,170,57.27a11.6,11.6,0,0,0,11.35,8.44h8a5.52,5.52,0,0,1,5.74,5.61,5.8,5.8,0,0,1-4.42,5.6h0l-21.49,0a.58.58,0,0,0-.58.59V78.7a3.73,3.73,0,0,0,3.73,3.73h17a11.2,11.2,0,0,0,11.35-11.66A11.59,11.59,0,0,0,189,60h-7.77a5.89,5.89,0,0,1-5.94-4.94,5.71,5.71,0,0,1,5.32-6.42h21.7A13.7,13.7,0,0,0,191.4,43.07Z"/><path class="cls-2" d="M228.08,45.19l-7.52,14.27a1.52,1.52,0,0,1-2.68,0l-7.55-14.32a3.88,3.88,0,0,0-3.44-2.07h-5.5a.23.23,0,0,0-.13.41A16.86,16.86,0,0,1,206,49l10,17.24a2.84,2.84,0,0,1,.39,1.45V80.32a2.12,2.12,0,0,0,2.11,2.11H220a2.11,2.11,0,0,0,2.11-2.1V67.67a2.84,2.84,0,0,1,.39-1.45l10-17.24a16.89,16.89,0,0,1,4.73-5.52.21.21,0,0,0-.12-.39H231.6A4,4,0,0,0,228.08,45.19Z"/><path class="cls-2" d="M254.92,59.94h-8.53a5.68,5.68,0,0,1-.31-11.36h17.71a2,2,0,0,0,2-2V45.09A2.12,2.12,0,0,0,263.75,43H246.08a11.32,11.32,0,0,0-11,11.28,11.46,11.46,0,0,0,11.28,11.37h9.79a5.74,5.74,0,0,1,4.42,5.6,5.81,5.81,0,0,1-4.42,5.6H238.43a2,2,0,0,0-2,2v1.45a2.11,2.11,0,0,0,2,2.09h16.41a11.25,11.25,0,1,0,.08-22.49Z"/><path class="cls-2" d="M166.32,81.52a6.48,6.48,0,0,1-.64-2.82l0-20.56a15.47,15.47,0,0,0-30.92,0l.06,14.29a4.48,4.48,0,0,1-4.48,4.47H129.1a23.2,23.2,0,0,1-4.9,4.64.49.49,0,0,0,.28.89h4.22a11.68,11.68,0,0,0,11.65-11.52s0-10.53,0-12.53a10.29,10.29,0,0,1,9.83-9.61h.06a10.29,10.29,0,0,1,9.83,9.61c0,4.34.05,18,.05,18.25,0,4,3.56,5.36,5.57,5.71A.57.57,0,0,0,166.32,81.52Z"/><path class="cls-3" d="M67.4,27.61h0a8.59,8.59,0,0,0-.09-1.12A7.79,7.79,0,0,0,60.09,20a12.87,12.87,0,0,1-3.58-.67,14.09,14.09,0,0,1-5-3.19,1.79,1.79,0,0,0-.14-.13l-.12-.14a14.14,14.14,0,0,1-3.82-8.16c0-.26,0-.53-.07-.79a7.68,7.68,0,0,0-.3-1.9,7.57,7.57,0,0,0-2.4-3.48,8.09,8.09,0,0,0-9.45-.11,7.57,7.57,0,0,0-.75,11.27A7.46,7.46,0,0,0,39,15l.6,0a14.08,14.08,0,0,1,8.42,4l.15.14.13.15.07.07a12.13,12.13,0,0,1,0,16.4l-.07.07c-.05,0-.08.11-.13.15l-.15.14a14.08,14.08,0,0,1-8.42,4l-.6,0a7.58,7.58,0,0,0-3.79,13.49,8.08,8.08,0,0,0,9.45-.1,7.52,7.52,0,0,0,2.4-3.48,7.61,7.61,0,0,0,.3-1.9c0-.26,0-.52.07-.79a14.14,14.14,0,0,1,3.82-8.16l.12-.14a1.79,1.79,0,0,0,.14-.13,14.09,14.09,0,0,1,5-3.19,12.87,12.87,0,0,1,3.58-.67,7.79,7.79,0,0,0,7.22-6.45,8.59,8.59,0,0,0,.09-1.12Z"/><path class="cls-4" d="M0,47.58H0A7.14,7.14,0,0,0,.09,48.7,7.8,7.8,0,0,0,7.3,55.15a12.52,12.52,0,0,1,3.59.67A14,14,0,0,1,15.84,59a2.58,2.58,0,0,1,.27.27,14.14,14.14,0,0,1,3.82,8.16c0,.26.05.52.07.78a7,7,0,0,0,2.69,5.39,8.11,8.11,0,0,0,9.46.11,7.59,7.59,0,0,0,.75-11.28,7.5,7.5,0,0,0-4.54-2.22l-.6,0a14.2,14.2,0,0,1-8.42-4L19.19,56l-.13-.15L19,55.77a12.12,12.12,0,0,1,0-16.39l.07-.08.13-.15.15-.13a14.08,14.08,0,0,1,8.42-4l.6,0a7.58,7.58,0,0,0,3.79-13.5,8.06,8.06,0,0,0-9.45.11A7.52,7.52,0,0,0,20.3,25a7.61,7.61,0,0,0-.3,1.9c0,.26,0,.52-.07.78a14.11,14.11,0,0,1-3.82,8.16L16,36l-.14.13a14,14,0,0,1-4.95,3.19A12.87,12.87,0,0,1,7.3,40,7.79,7.79,0,0,0,.09,46.46,7,7,0,0,0,0,47.58Z"/></g></g></svg>