<svg xmlns="http://www.w3.org/2000/svg" xmlns:xlink="http://www.w3.org/1999/xlink" viewBox="0 0 345.65 137.55"><defs><style>.cls-1{fill:#6b8fc9;}.cls-2{fill:#243571;}.cls-3{fill:url(#Gradiente_sem_nome_46);}.cls-4{fill:url(#Gradiente_sem_nome_46-2);}</style><linearGradient id="Gradiente_sem_nome_46" x1="41.42" y1="35.85" x2="87.52" y2="35.85" gradientUnits="userSpaceOnUse"><stop offset="0" stop-color="#6b8fc9"/><stop offset="1" stop-color="#243470"/></linearGradient><linearGradient id="Gradiente_sem_nome_46-2" x1="-2306.59" y1="38.65" x2="-2352.68" y2="38.65" gradientTransform="translate(-2307.15 100.43) rotate(180)" xlink:href="#Gradiente_sem_nome_46"/></defs><g id="Camada_2" data-name="Camada 2"><g id="Camada_1-2" data-name="Camada 1"><path class="cls-1" d="M73.4,132.14v-5.26c0-3.27,1.71-5.41,5.21-5.41A4.54,4.54,0,0,1,83,123.9a1,1,0,0,1,.11.4.9.9,0,0,1-.9.9.84.84,0,0,1-.74-.38,3,3,0,0,0-2.81-1.53c-2.4,0-3.3,1.39-3.3,3.82v4.81c0,2.42.9,3.81,3.3,3.81a3.29,3.29,0,0,0,2.79-1.5.94.94,0,0,1,.8-.52.9.9,0,0,1,.9.9.94.94,0,0,1-.15.49,4.7,4.7,0,0,1-4.34,2.45C75.11,137.55,73.4,135.42,73.4,132.14Z"/><path class="cls-1" d="M86.32,132.14v-5.26c0-3.27,1.71-5.41,5.21-5.41s5.21,2.14,5.21,5.41v5.26c0,3.28-1.71,5.41-5.21,5.41S86.32,135.42,86.32,132.14Zm8.51-.22v-4.81c0-2.43-.88-3.82-3.3-3.82s-3.3,1.39-3.3,3.82v4.81c0,2.42.87,3.81,3.3,3.81S94.83,134.34,94.83,131.92Z"/><path class="cls-1" d="M101.35,136.68V122.35a.86.86,0,0,1,.85-.88.88.88,0,0,1,.79.5l7.21,11.54h.11V122.35a.88.88,0,1,1,1.75,0v14.31a1,1,0,0,1-1,.89,1,1,0,0,1-.85-.47l-7-11.36h-.11v11a.88.88,0,0,1-1.75,0Z"/><path class="cls-1" d="M116.65,136.45a.94.94,0,0,1-.47-.81.89.89,0,0,1,1.39-.74,6.49,6.49,0,0,0,3.23.83c2.34,0,3.1-1.19,3.1-2.69,0-4.81-7.52-1.78-7.52-7.37,0-2.69,1.59-4.2,4.54-4.2a6.7,6.7,0,0,1,3.7,1.06,1,1,0,0,1,.47.76.85.85,0,0,1-.87.83,1.08,1.08,0,0,1-.56-.18,6.25,6.25,0,0,0-2.74-.69c-2.2,0-2.68,1.14-2.68,2.4,0,3.59,7.53,1.23,7.53,7.23,0,2.56-1.39,4.67-5,4.67A7.91,7.91,0,0,1,116.65,136.45Z"/><path class="cls-1" d="M130,132.43v-10a.94.94,0,0,1,.95-.92,1,1,0,0,1,1,1v9.77c0,2.11.68,3.52,3.21,3.52s3.22-1.41,3.22-3.52v-9.82a.93.93,0,0,1,.94-.92,1,1,0,0,1,1,1v10c0,3.28-1.73,5.12-5.13,5.12S130,135.71,130,132.43Z"/><path class="cls-1" d="M145.41,136.43v-14a1,1,0,0,1,.94-1,1,1,0,0,1,1,1v13.18h5.34a.88.88,0,1,1,0,1.75H146.3A.92.92,0,0,1,145.41,136.43Z"/><path class="cls-1" d="M158.32,136.54V123.4h-3.5a.85.85,0,0,1-.88-.87.87.87,0,0,1,.88-.88h8.89a.82.82,0,0,1,.88.88.85.85,0,0,1-.88.87h-3.48v13.21a.94.94,0,0,1-1,.94A1,1,0,0,1,158.32,136.54Z"/><path class="cls-1" d="M167.54,132.14v-5.26c0-3.27,1.7-5.41,5.21-5.41s5.21,2.14,5.21,5.41v5.26c0,3.28-1.71,5.41-5.21,5.41S167.54,135.42,167.54,132.14Zm8.51-.22v-4.81c0-2.43-.88-3.82-3.3-3.82s-3.3,1.39-3.3,3.82v4.81c0,2.42.87,3.81,3.3,3.81S176.05,134.34,176.05,131.92Z"/><path class="cls-1" d="M182.57,136.61v-14a1,1,0,0,1,.94-1h3.41c3.28,0,5.28,1.3,5.28,4.79,0,3.12-1.82,4.13-2.94,4.49L192,136a1.18,1.18,0,0,1,.15.56,1,1,0,0,1-1,1,1,1,0,0,1-.92-.63l-2.88-5.7h-2.89v5.44a1,1,0,0,1-1.91,0Zm4.47-7.14c2,0,3.21-.79,3.21-3,0-2.41-1.21-3-3.46-3h-2.31v6.07Z"/><path class="cls-1" d="M196.74,136.61V122.44a1,1,0,1,1,1.91,0v14.17a1,1,0,0,1-1,.94A1,1,0,0,1,196.74,136.61Z"/><path class="cls-1" d="M202.65,136.61a1.63,1.63,0,0,1,.09-.45l4.52-13.77a.91.91,0,0,1,.92-.74h.4a.91.91,0,0,1,.92.74L214,136.21a1.44,1.44,0,0,1,.09.4.94.94,0,0,1-1,.94,1,1,0,0,1-.92-.72l-1.06-3.36h-5.57l-1.05,3.36a1,1,0,0,1-.94.72A.93.93,0,0,1,202.65,136.61Zm8-4.92-2.27-7.25h-.09l-2.26,7.25Z"/><path class="cls-1" d="M223.91,133.31a4.16,4.16,0,0,1,3.05-4.4l-.7-.83a4.66,4.66,0,0,1-1.21-3c0-2.2,1.75-3.64,4.11-3.64a6.66,6.66,0,0,1,3.17.77.9.9,0,0,1,.51.8.89.89,0,0,1-.89.88,1.57,1.57,0,0,1-.48-.13,5.58,5.58,0,0,0-2.31-.52c-1.37,0-2.24.72-2.24,1.84a3.11,3.11,0,0,0,1,2.09l4.92,5.68a8.61,8.61,0,0,0,1-3.14.85.85,0,0,1,.85-.77.81.81,0,0,1,.85.86,9.79,9.79,0,0,1-1.5,4.47l1.53,1.73a1,1,0,0,1,.27.65.87.87,0,0,1-.9.87,1,1,0,0,1-.72-.33L233,135.78a5.09,5.09,0,0,1-4.34,1.77C226,137.55,223.91,136.05,223.91,133.31Zm8,1.19-3.86-4.36a2.79,2.79,0,0,0-2.29,3c0,1.64,1,2.69,2.9,2.69A3.68,3.68,0,0,0,231.92,134.5Z"/><path class="cls-1" d="M246.08,136.45a.94.94,0,0,1-.47-.81.89.89,0,0,1,1.39-.74,6.53,6.53,0,0,0,3.24.83c2.33,0,3.09-1.19,3.09-2.69,0-4.81-7.52-1.78-7.52-7.37,0-2.69,1.6-4.2,4.54-4.2a6.7,6.7,0,0,1,3.7,1.06,1,1,0,0,1,.48.76.86.86,0,0,1-.88.83,1.08,1.08,0,0,1-.56-.18,6.22,6.22,0,0,0-2.74-.69c-2.2,0-2.67,1.14-2.67,2.4,0,3.59,7.52,1.23,7.52,7.23,0,2.56-1.39,4.67-5,4.67A7.92,7.92,0,0,1,246.08,136.45Z"/><path class="cls-1" d="M259.43,136.61V122.44a1,1,0,1,1,1.9,0v14.17a1,1,0,0,1-1,.94A.94.94,0,0,1,259.43,136.61Z"/><path class="cls-1" d="M265.92,136.45a.94.94,0,0,1-.47-.81.89.89,0,0,1,1.39-.74,6.49,6.49,0,0,0,3.23.83c2.34,0,3.1-1.19,3.1-2.69,0-4.81-7.52-1.78-7.52-7.37,0-2.69,1.59-4.2,4.54-4.2a6.7,6.7,0,0,1,3.7,1.06,1,1,0,0,1,.47.76.85.85,0,0,1-.87.83,1.08,1.08,0,0,1-.56-.18,6.25,6.25,0,0,0-2.74-.69c-2.21,0-2.68,1.14-2.68,2.4,0,3.59,7.53,1.23,7.53,7.23,0,2.56-1.4,4.67-5,4.67A7.91,7.91,0,0,1,265.92,136.45Z"/><path class="cls-1" d="M282.07,136.54V123.4h-3.5a.85.85,0,0,1-.88-.87.87.87,0,0,1,.88-.88h8.89a.83.83,0,0,1,.88.88.85.85,0,0,1-.88.87H284v13.21a1,1,0,0,1-1,.94A1,1,0,0,1,282.07,136.54Z"/><path class="cls-1" d="M292.3,136.43V122.62a1,1,0,0,1,1-1h6.31a.88.88,0,0,1,0,1.75H294.2v5.08h4.92a.88.88,0,1,1,0,1.75H294.2v5.39h5.42a.88.88,0,0,1,0,1.75h-6.38A.94.94,0,0,1,292.3,136.43Z"/><path class="cls-1" d="M304.77,136.68v-14.4a.8.8,0,0,1,.8-.81.82.82,0,0,1,.74.5l4.9,9.61,4.87-9.61a.88.88,0,0,1,.77-.5.8.8,0,0,1,.81.79v14.42a.88.88,0,0,1-1.76,0V126.3h-.11L311.93,134a.78.78,0,0,1-.72.43.79.79,0,0,1-.72-.43l-3.86-7.68h-.11v10.38a.88.88,0,0,1-1.75,0Z"/><path class="cls-1" d="M321.66,136.61a1.63,1.63,0,0,1,.09-.45l4.51-13.77a.92.92,0,0,1,.92-.74h.41a.91.91,0,0,1,.92.74L333,136.21a1.16,1.16,0,0,1,.09.4.93.93,0,0,1-1,.94,1,1,0,0,1-.92-.72l-1.06-3.36H324.6l-1.05,3.36a1,1,0,0,1-.95.72A.93.93,0,0,1,321.66,136.61Zm8-4.92-2.27-7.25h-.09l-2.27,7.25Z"/><path class="cls-1" d="M336.53,136.45a.94.94,0,0,1-.47-.81.89.89,0,0,1,1.39-.74,6.53,6.53,0,0,0,3.24.83c2.33,0,3.1-1.19,3.1-2.69,0-4.81-7.53-1.78-7.53-7.37,0-2.69,1.6-4.2,4.54-4.2a6.76,6.76,0,0,1,3.71,1.06,1,1,0,0,1,.47.76.85.85,0,0,1-.88.83,1.08,1.08,0,0,1-.56-.18,6.22,6.22,0,0,0-2.74-.69c-2.2,0-2.67,1.14-2.67,2.4,0,3.59,7.52,1.23,7.52,7.23,0,2.56-1.39,4.67-5,4.67A7.94,7.94,0,0,1,336.53,136.45Z"/><path class="cls-1" d="M135,83.4a9.76,9.76,0,1,1,7.28,7.27A9.78,9.78,0,0,1,135,83.4Z"/><path class="cls-2" d="M170,78.59c0-.28-.08-.55-.11-.83-.08-.54-.15-1.09-.25-1.62-.07-.33-.15-.65-.23-1s-.22-.93-.36-1.39-.21-.69-.33-1-.29-.82-.45-1.23l-.45-1.06c-.17-.37-.35-.73-.53-1.09s-.37-.72-.57-1.08-.38-.62-.57-.93-.47-.75-.72-1.1-.36-.49-.54-.73c-.3-.4-.59-.8-.91-1.18l-.26-.28a26.17,26.17,0,0,0-6.47-5.38l-.14-.09c-.59-.34-1.19-.65-1.81-1l-.23-.11c-.61-.29-1.23-.54-1.87-.78l-.24-.09q-1-.36-2-.63l-.17-.05a25.77,25.77,0,0,0-6.61-.89h-.05a27.66,27.66,0,0,0-4.37.34h0l-.66.12h0a23.32,23.32,0,0,0-3.57.92h0l-.2.07h0a23.63,23.63,0,0,0-3.6,1.66l0,0h0c-.54.31-1.06.64-1.57,1h0l-.06,0a25.32,25.32,0,0,0-2.34,1.82,26.21,26.21,0,0,0-5.4,6A91.81,91.81,0,0,0,115.89,78l0,.08-2,3.88-.2.38L113,83.56c-.49.92-1,1.84-1.49,2.75l-.23.43c-.56,1-1.14,2-1.73,3h0c0,.07-.07.12-.1.18-.63,1-1.28,2.07-2,3l-.14.19a18.14,18.14,0,0,1-4.12,3.51,20.35,20.35,0,0,1-9.77,2.76,18.31,18.31,0,0,1-17.5-12.86,18.52,18.52,0,0,1-.8-6.31c.44-10,9.09-17.59,19-17.59l13.33,0a2.61,2.61,0,0,0,2.59-2.6V58.19a2.69,2.69,0,0,0-2.68-2.69h-14A25.61,25.61,0,0,0,67.81,81.1h0a25.63,25.63,0,0,0,25.62,25.62,26,26,0,0,0,11.1-2.5,22.18,22.18,0,0,0,8.06-6c.17-.18.35-.34.51-.53l0,0h0c.58-.78,1.14-1.6,1.67-2.43v0c.26-.41.51-.85.77-1.27h0l0-.1c.58-1,1.15-2,1.7-3l0-.07c.14-.24.27-.48.4-.73h0q.57-1.08,1.11-2.16c0-.08.08-.16.13-.24l0-.09c.87-1.73,1.73-3.47,2.59-5.2.3-.61.61-1.22.92-1.83,0-.1.1-.2.16-.3a54.4,54.4,0,0,1,6.74-10.64h0a24.74,24.74,0,0,1,1.73-1.81h0a20.61,20.61,0,0,1,1.89-1.61c.25-.19.5-.38.76-.56s.69-.46,1.05-.67,1-.57,1.56-.83c.33-.15.67-.29,1-.42.56-.22,1.12-.41,1.72-.59l.87-.22a19.29,19.29,0,0,1,2.51-.44h0c.54,0,1.09-.08,1.64-.08h.05a18.67,18.67,0,0,1,11.27,3.86l.12.09c.35.27.68.55,1,.84l.26.23c.29.28.58.56.86.85l.29.33c.26.28.52.58.76.88.1.12.18.24.27.36a17.86,17.86,0,0,1,1.16,1.72c.11.18.22.35.32.53s.25.48.37.72.27.54.39.82.19.47.29.71.23.6.33.91.15.47.21.7.19.67.26,1,.11.45.15.68.13.77.18,1.15c0,.2.05.39.07.59a17.53,17.53,0,0,1,.09,1.78,18.69,18.69,0,0,1-36.76,4.72A.63.63,0,0,0,125,85.7l-3.32,6.58a1.82,1.82,0,0,0,0,1.74,26,26,0,0,0,48.48-12.91C170.17,80.26,170.12,79.42,170,78.59Z"/><path class="cls-2" d="M248.52,55.92h-14a14.7,14.7,0,0,0-13.76,18.44,15.09,15.09,0,0,0,14.75,11h10.4a7.16,7.16,0,0,1,7.46,7.27,7.53,7.53,0,0,1-5.73,7.27h0l-27.9.06a.76.76,0,0,0-.76.77v1.48A4.85,4.85,0,0,0,223.8,107h22.09a14.53,14.53,0,0,0,14.73-15.14C260.25,84,253.33,78,245.41,78H235.32a7.66,7.66,0,0,1-7.71-6.42,7.4,7.4,0,0,1,6.91-8.33h28.17A17.83,17.83,0,0,0,248.52,55.92Z"/><path class="cls-2" d="M296.16,58.68,286.39,77.2a2,2,0,0,1-3.48,0l-9.8-18.58a5,5,0,0,0-4.46-2.7H261.5a.3.3,0,0,0-.17.54,21.89,21.89,0,0,1,6.12,7.13L280.38,86a3.76,3.76,0,0,1,.51,1.88V104.3a2.75,2.75,0,0,0,2.73,2.74h2.05a2.75,2.75,0,0,0,2.74-2.74V87.86a3.73,3.73,0,0,1,.51-1.87l12.93-22.4A21.83,21.83,0,0,1,308,56.44a.29.29,0,0,0-.17-.52h-7.11A5.15,5.15,0,0,0,296.16,58.68Z"/><path class="cls-2" d="M331,77.84H319.94a7.39,7.39,0,0,1-.41-14.76h23a2.66,2.66,0,0,0,2.64-2.65V58.54a2.75,2.75,0,0,0-2.69-2.73h-23a14.7,14.7,0,0,0-14.25,14.65,14.87,14.87,0,0,0,14.66,14.75h12.7a7.46,7.46,0,0,1,5.74,7.28,7.54,7.54,0,0,1-5.74,7.27H309.59a2.66,2.66,0,0,0-2.59,2.65v1.89a2.73,2.73,0,0,0,2.59,2.71l21.31,0a14.6,14.6,0,1,0,.1-29.2Z"/><path class="cls-2" d="M216,105.86a8.68,8.68,0,0,1-.81-3.67V75.49a20.08,20.08,0,0,0-40.14,0L175.08,94a5.82,5.82,0,0,1-5.81,5.82h-1.64a30,30,0,0,1-6.36,6,.64.64,0,0,0,.37,1.17h5.47a15,15,0,0,0,7.4-2,15.14,15.14,0,0,0,7.73-13s0-13.67,0-16.27A13.33,13.33,0,0,1,195,63.33h.08A13.34,13.34,0,0,1,207.88,75.8c0,5.64.08,23.37.08,23.71,0,5.2,4.61,6.95,7.22,7.4A.73.73,0,0,0,216,105.86Z"/><path class="cls-3" d="M87.51,35.85h0A9.86,9.86,0,0,0,78,26a16.63,16.63,0,0,1-4.65-.87A18.13,18.13,0,0,1,66.94,21l-.18-.17-.16-.18a18.36,18.36,0,0,1-5-10.6q-.06-.51-.09-1a9.72,9.72,0,0,0-.39-2.46,9.89,9.89,0,0,0-3.11-4.53,10.51,10.51,0,0,0-12.28-.14,9.84,9.84,0,0,0,4.92,17.53c.26,0,.52,0,.78,0A18.33,18.33,0,0,1,62.4,24.74l.2.17c.06.07.11.14.17.2l.09.1a15.76,15.76,0,0,1,0,21.29l-.09.09c-.06.07-.11.14-.17.2l-.2.18a18.31,18.31,0,0,1-10.93,5.24l-.78.06a9.82,9.82,0,0,0-4.92,17.51A10.48,10.48,0,0,0,58,69.65a9,9,0,0,0,3.51-7q0-.51.09-1a18.33,18.33,0,0,1,5-10.59c.05-.06.1-.13.16-.19l.18-.17a18.13,18.13,0,0,1,6.44-4.14A16.63,16.63,0,0,1,78,45.68a10.13,10.13,0,0,0,9.37-8.37,10.47,10.47,0,0,0,.11-1.46Z"/><path class="cls-4" d="M0,61.78H0a10.25,10.25,0,0,0,.12,1.45,10.12,10.12,0,0,0,9.36,8.38,16.27,16.27,0,0,1,4.65.86,18.29,18.29,0,0,1,6.44,4.15l.19.17.16.18a18.34,18.34,0,0,1,4.95,10.6q.06.51.09,1a10.2,10.2,0,0,0,.4,2.46,9.81,9.81,0,0,0,3.11,4.53,10.51,10.51,0,0,0,12.27.14,9.84,9.84,0,0,0-4.91-17.53c-.27,0-.53,0-.79,0a18.33,18.33,0,0,1-10.93-5.25c-.06-.06-.13-.11-.19-.18l-.17-.19-.1-.1a15.78,15.78,0,0,1,0-21.29l.1-.09c.06-.07.11-.14.17-.2s.13-.11.19-.18A18.31,18.31,0,0,1,36,45.42c.26,0,.52,0,.79-.06a9.84,9.84,0,0,0,4.92-17.52A10.49,10.49,0,0,0,29.47,28a9.73,9.73,0,0,0-3.11,4.52A10.2,10.2,0,0,0,26,35c0,.34-.05.68-.09,1a18.31,18.31,0,0,1-4.95,10.6c-.06.06-.11.13-.16.19l-.19.16a18.15,18.15,0,0,1-6.44,4.15A16.56,16.56,0,0,1,9.48,52,10.11,10.11,0,0,0,.12,60.32,10.39,10.39,0,0,0,0,61.78Z"/></g></g></svg>