<svg xmlns="http://www.w3.org/2000/svg" viewBox="0 0 241.22 96"><defs><style>.cls-1{fill:#6b8fc9;}.cls-2{fill:#fff;}</style></defs><g id="Camada_2" data-name="Camada 2"><g id="Camada_1-2" data-name="Camada 1"><path class="cls-1" d="M51.22,92.22V88.55c0-2.29,1.2-3.78,3.64-3.78a3.17,3.17,0,0,1,3,1.7.68.68,0,0,1,.07.28.62.62,0,0,1-.62.62.58.58,0,0,1-.52-.26,2.09,2.09,0,0,0-2-1.07c-1.68,0-2.3,1-2.3,2.67v3.35c0,1.69.62,2.67,2.3,2.67a2.28,2.28,0,0,0,1.94-1,.68.68,0,0,1,.57-.37.64.64,0,0,1,.63.63.78.78,0,0,1-.11.35,3.29,3.29,0,0,1-3,1.71C52.42,96,51.22,94.51,51.22,92.22Z"/><path class="cls-1" d="M60.24,92.22V88.55c0-2.29,1.19-3.78,3.64-3.78s3.63,1.49,3.63,3.78v3.67c0,2.29-1.19,3.78-3.63,3.78S60.24,94.51,60.24,92.22Zm5.94-.16V88.71c0-1.7-.61-2.67-2.3-2.67s-2.31,1-2.31,2.67v3.35c0,1.69.61,2.67,2.31,2.67S66.18,93.75,66.18,92.06Z"/><path class="cls-1" d="M70.73,95.38v-10a.6.6,0,0,1,.6-.61.61.61,0,0,1,.54.35l5,8H77V85.38a.62.62,0,0,1,1.23,0v10a.67.67,0,0,1-.69.63.69.69,0,0,1-.6-.33L72,87.74H72v7.64a.6.6,0,0,1-.61.62A.61.61,0,0,1,70.73,95.38Z"/><path class="cls-1" d="M81.41,95.23a.65.65,0,0,1-.33-.57.62.62,0,0,1,1-.51,4.64,4.64,0,0,0,2.26.58c1.63,0,2.16-.84,2.16-1.89,0-3.35-5.25-1.23-5.25-5.14,0-1.88,1.11-2.93,3.16-2.93a4.66,4.66,0,0,1,2.59.74.68.68,0,0,1,.33.53.59.59,0,0,1-.61.58.77.77,0,0,1-.39-.12A4.26,4.26,0,0,0,84.38,86c-1.53,0-1.86.8-1.86,1.68,0,2.51,5.25.86,5.25,5,0,1.78-1,3.26-3.46,3.26A5.51,5.51,0,0,1,81.41,95.23Z"/><path class="cls-1" d="M90.72,92.42v-7a.65.65,0,0,1,.66-.65.67.67,0,0,1,.67.68v6.81c0,1.48.47,2.47,2.24,2.47s2.25-1,2.25-2.47V85.42a.64.64,0,0,1,.65-.65.67.67,0,0,1,.68.68v7c0,2.29-1.21,3.58-3.58,3.58S90.72,94.71,90.72,92.42Z"/><path class="cls-1" d="M101.48,95.21V85.45a.66.66,0,0,1,.65-.68.69.69,0,0,1,.68.68v9.2h3.73a.6.6,0,0,1,.61.61.61.61,0,0,1-.61.61H102.1A.64.64,0,0,1,101.48,95.21Z"/><path class="cls-1" d="M110.49,95.29V86.12h-2.44a.61.61,0,1,1,0-1.22h6.2a.57.57,0,0,1,.61.61.59.59,0,0,1-.61.61h-2.43v9.22a.67.67,0,0,1-.67.66A.68.68,0,0,1,110.49,95.29Z"/><path class="cls-1" d="M116.92,92.22V88.55c0-2.29,1.19-3.78,3.64-3.78s3.63,1.49,3.63,3.78v3.67c0,2.29-1.19,3.78-3.63,3.78S116.92,94.51,116.92,92.22Zm5.94-.16V88.71c0-1.7-.61-2.67-2.3-2.67s-2.31,1-2.31,2.67v3.35c0,1.69.61,2.67,2.31,2.67S122.86,93.75,122.86,92.06Z"/><path class="cls-1" d="M127.41,95.34V85.57a.67.67,0,0,1,.66-.67h2.38c2.29,0,3.68.91,3.68,3.34a2.93,2.93,0,0,1-2,3.13l1.9,3.56a.93.93,0,0,1,.11.39.67.67,0,0,1-.68.68.7.7,0,0,1-.64-.44l-2-4h-2v3.8a.66.66,0,0,1-.67.63A.67.67,0,0,1,127.41,95.34Zm3.12-5c1.42,0,2.24-.55,2.24-2.11s-.85-2.12-2.41-2.12h-1.62v4.23Z"/><path class="cls-1" d="M137.3,95.34V85.45a.67.67,0,1,1,1.33,0v9.89A.67.67,0,0,1,138,96,.67.67,0,0,1,137.3,95.34Z"/><path class="cls-1" d="M141.43,95.34a1.13,1.13,0,0,1,.06-.32l3.15-9.6a.63.63,0,0,1,.64-.52h.28a.64.64,0,0,1,.65.52l3.15,9.64a.88.88,0,0,1,.06.28.66.66,0,0,1-.67.66.69.69,0,0,1-.65-.51l-.73-2.35h-3.89l-.74,2.35a.69.69,0,0,1-.66.51A.65.65,0,0,1,141.43,95.34ZM147,91.9l-1.59-5.06h-.06l-1.58,5.06Z"/><path class="cls-1" d="M156.26,93A2.91,2.91,0,0,1,158.39,90l-.49-.58a3.23,3.23,0,0,1-.84-2.07,2.6,2.6,0,0,1,2.87-2.54,4.66,4.66,0,0,1,2.21.54.61.61,0,0,1-.27,1.17,1.17,1.17,0,0,1-.33-.09,4,4,0,0,0-1.61-.36c-1,0-1.57.5-1.57,1.28a2.19,2.19,0,0,0,.69,1.46l3.43,4a6.06,6.06,0,0,0,.67-2.2.61.61,0,0,1,.6-.53.57.57,0,0,1,.6.59,7.07,7.07,0,0,1-1,3.12l1.06,1.21a.65.65,0,0,1,.19.45.61.61,0,0,1-.63.62.68.68,0,0,1-.5-.24l-.83-1a3.55,3.55,0,0,1-3,1.24C157.68,96,156.26,94.94,156.26,93Zm5.59.83-2.69-3a2,2,0,0,0-1.6,2.09,1.78,1.78,0,0,0,2,1.88A2.56,2.56,0,0,0,161.85,93.86Z"/><path class="cls-1" d="M171.73,95.23a.68.68,0,0,1-.33-.57A.63.63,0,0,1,172,94a.62.62,0,0,1,.35.11,4.6,4.6,0,0,0,2.25.58c1.63,0,2.17-.84,2.17-1.89,0-3.35-5.25-1.23-5.25-5.14,0-1.88,1.11-2.93,3.16-2.93a4.66,4.66,0,0,1,2.59.74.68.68,0,0,1,.33.53.59.59,0,0,1-.61.58.83.83,0,0,1-.4-.12,4.23,4.23,0,0,0-1.91-.49c-1.53,0-1.86.8-1.86,1.68,0,2.51,5.25.86,5.25,5,0,1.78-1,3.26-3.47,3.26A5.56,5.56,0,0,1,171.73,95.23Z"/><path class="cls-1" d="M181.05,95.34V85.45a.67.67,0,1,1,1.33,0v9.89a.67.67,0,0,1-.67.66A.67.67,0,0,1,181.05,95.34Z"/><path class="cls-1" d="M185.58,95.23a.68.68,0,0,1-.33-.57.63.63,0,0,1,.63-.62.62.62,0,0,1,.34.11,4.67,4.67,0,0,0,2.26.58c1.63,0,2.16-.84,2.16-1.89,0-3.35-5.25-1.23-5.25-5.14,0-1.88,1.11-2.93,3.17-2.93a4.65,4.65,0,0,1,2.58.74.68.68,0,0,1,.33.53.59.59,0,0,1-.61.58.79.79,0,0,1-.39-.12,4.26,4.26,0,0,0-1.91-.49c-1.54,0-1.87.8-1.87,1.68,0,2.51,5.25.86,5.25,5,0,1.78-1,3.26-3.46,3.26A5.54,5.54,0,0,1,185.58,95.23Z"/><path class="cls-1" d="M196.85,95.29V86.12h-2.44a.61.61,0,1,1,0-1.22h6.2a.57.57,0,0,1,.61.61.59.59,0,0,1-.61.61h-2.43v9.22a.66.66,0,0,1-.67.66A.68.68,0,0,1,196.85,95.29Z"/><path class="cls-1" d="M204,95.21V85.57a.67.67,0,0,1,.7-.67h4.41a.6.6,0,0,1,.61.61.61.61,0,0,1-.61.61h-3.78v3.54h3.43a.62.62,0,0,1,0,1.23h-3.43v3.76h3.78a.6.6,0,0,1,.61.61.61.61,0,0,1-.61.61h-4.46A.66.66,0,0,1,204,95.21Z"/><path class="cls-1" d="M212.69,95.38v-10a.56.56,0,0,1,.56-.57.58.58,0,0,1,.52.35l3.42,6.71,3.4-6.71a.59.59,0,0,1,.53-.35.54.54,0,0,1,.56.55V95.38a.6.6,0,0,1-.61.62.61.61,0,0,1-.61-.62V88.14h-.08l-2.69,5.36a.55.55,0,0,1-.5.3.56.56,0,0,1-.51-.3L214,88.14h-.08v7.24a.61.61,0,0,1-.61.62A.6.6,0,0,1,212.69,95.38Z"/><path class="cls-1" d="M224.48,95.34a1.13,1.13,0,0,1,.06-.32l3.15-9.6a.64.64,0,0,1,.64-.52h.29a.63.63,0,0,1,.64.52l3.15,9.64a.88.88,0,0,1,.06.28.66.66,0,0,1-.67.66.68.68,0,0,1-.64-.51l-.74-2.35h-3.89l-.73,2.35a.7.7,0,0,1-.66.51A.65.65,0,0,1,224.48,95.34Zm5.61-3.44-1.58-5.06h-.07l-1.58,5.06Z"/><path class="cls-1" d="M234.86,95.23a.65.65,0,0,1-.33-.57.63.63,0,0,1,.63-.62.62.62,0,0,1,.34.11,4.67,4.67,0,0,0,2.26.58c1.63,0,2.16-.84,2.16-1.89,0-3.35-5.25-1.23-5.25-5.14,0-1.88,1.11-2.93,3.17-2.93a4.65,4.65,0,0,1,2.58.74.68.68,0,0,1,.33.53.59.59,0,0,1-.61.58.77.77,0,0,1-.39-.12,4.26,4.26,0,0,0-1.91-.49c-1.54,0-1.87.8-1.87,1.68,0,2.51,5.25.86,5.25,5,0,1.78-1,3.26-3.46,3.26A5.54,5.54,0,0,1,234.86,95.23Z"/><path class="cls-1" d="M94.18,58.2a6.81,6.81,0,1,1,5.08,5.08A6.82,6.82,0,0,1,94.18,58.2Z"/><path class="cls-2" d="M118.67,54.85c0-.2-.06-.39-.08-.58,0-.38-.1-.76-.18-1.13s-.1-.46-.15-.68-.16-.66-.25-1-.16-.48-.24-.71-.2-.58-.31-.87-.21-.49-.32-.73-.24-.51-.36-.77-.26-.5-.4-.75L116,47c-.16-.26-.32-.52-.5-.77l-.38-.51c-.21-.27-.41-.55-.64-.82,0-.06-.12-.12-.17-.19A18.15,18.15,0,0,0,109.77,41l-.1-.06q-.61-.36-1.26-.66l-.16-.08c-.43-.2-.86-.38-1.31-.55l-.16-.06c-.46-.16-.92-.31-1.39-.44l-.12,0a17.93,17.93,0,0,0-4.61-.62h0a19.68,19.68,0,0,0-3,.23h0l-.46.08h0a17.45,17.45,0,0,0-2.49.65h0l-.14,0h0a17,17,0,0,0-2.52,1.16h0c-.38.22-.74.45-1.1.69h0l0,0a16.58,16.58,0,0,0-1.63,1.27,18.13,18.13,0,0,0-3.77,4.23,62.31,62.31,0,0,0-4.47,7.55l0,.05c-.48.9-.94,1.8-1.42,2.71l-.14.26-.46.89c-.34.64-.68,1.28-1,1.91l-.17.31c-.39.7-.8,1.4-1.21,2.09h0l-.07.12c-.44.73-.9,1.45-1.37,2.13l-.1.13A12.64,12.64,0,0,1,72,67.46a14.11,14.11,0,0,1-6.82,1.93A12.76,12.76,0,0,1,52.42,56,13.16,13.16,0,0,1,65.71,43.74l9.3,0a1.82,1.82,0,0,0,1.82-1.81V40.61A1.89,1.89,0,0,0,75,38.73H65.2A17.87,17.87,0,0,0,47.33,56.6h0A17.87,17.87,0,0,0,65.2,74.48,18.12,18.12,0,0,0,73,72.74a15.52,15.52,0,0,0,5.63-4.18c.11-.13.24-.24.35-.37h0c.4-.55.79-1.12,1.17-1.7h0c.19-.29.36-.59.54-.89h0a.25.25,0,0,0,0-.07c.41-.67.8-1.36,1.18-2.07l0,0,.28-.51h0c.27-.49.53-1,.78-1.51l.09-.16,0-.06c.61-1.21,1.2-2.42,1.8-3.63l.65-1.28a2.12,2.12,0,0,1,.11-.21,37.3,37.3,0,0,1,4.71-7.42h0a16,16,0,0,1,1.21-1.26h0a14,14,0,0,1,1.32-1.12,6.55,6.55,0,0,1,.53-.39c.24-.17.48-.33.74-.48s.71-.39,1.08-.57.47-.2.7-.29a11.28,11.28,0,0,1,1.2-.41l.6-.16a12.19,12.19,0,0,1,1.76-.31h0c.38,0,.76-.06,1.15-.06h0a13,13,0,0,1,3.13.4,13.13,13.13,0,0,1,4.74,2.29.27.27,0,0,1,.08.07c.24.18.47.38.7.58l.18.16c.2.2.41.39.6.6l.2.22a7.57,7.57,0,0,1,.53.62c.07.08.13.17.19.25q.43.59.81,1.2c.08.13.16.25.23.38s.17.33.25.5.19.37.27.57a5,5,0,0,1,.2.49c.09.21.16.42.24.64l.15.49.18.7c0,.15.07.31.1.47s.09.53.12.8l.06.41c0,.41.06.83.06,1.25A13,13,0,0,1,88,59.9a.43.43,0,0,0-.8-.09c-.67,1.33-1.79,3.53-2.32,4.59a1.27,1.27,0,0,0,0,1.21,18.13,18.13,0,0,0,33.84-9C118.76,56,118.72,55.43,118.67,54.85Z"/><path class="cls-2" d="M173.44,39h-9.78a10.25,10.25,0,0,0-9.6,12.86,10.53,10.53,0,0,0,10.3,7.66h7.26a5,5,0,0,1,5.2,5.07,5.26,5.26,0,0,1-4,5.08h0l-19.47,0a.54.54,0,0,0-.54.53v1a3.39,3.39,0,0,0,3.38,3.38H171.6a10.14,10.14,0,0,0,10.28-10.56,10.49,10.49,0,0,0-10.61-9.73h-7.05a5.34,5.34,0,0,1-5.38-4.48,5.17,5.17,0,0,1,4.82-5.81h19.67A12.43,12.43,0,0,0,173.44,39Z"/><path class="cls-2" d="M206.68,41l-6.82,12.93a1.38,1.38,0,0,1-2.43,0l-6.83-13A3.52,3.52,0,0,0,187.48,39h-5a.2.2,0,0,0-.12.37,15.37,15.37,0,0,1,4.26,5l9,15.63a2.62,2.62,0,0,1,.35,1.31V72.79a1.92,1.92,0,0,0,1.91,1.91h1.43a1.92,1.92,0,0,0,1.91-1.91V61.32a2.62,2.62,0,0,1,.35-1.31l9-15.63a15.17,15.17,0,0,1,4.29-5,.2.2,0,0,0-.12-.36h-5A3.6,3.6,0,0,0,206.68,41Z"/><path class="cls-2" d="M231,54.32h-7.72A5.15,5.15,0,0,1,223,44h16a1.86,1.86,0,0,0,1.85-1.86V40.86A1.92,1.92,0,0,0,239,39H223a10.25,10.25,0,0,0-9.94,10.22,10.38,10.38,0,0,0,10.23,10.3h8.86a5.2,5.2,0,0,1,4,5.07,5.27,5.27,0,0,1-4,5.08H216.05a1.86,1.86,0,0,0-1.8,1.85v1.31a1.91,1.91,0,0,0,1.8,1.9h14.88A10.19,10.19,0,1,0,231,54.32Z"/><path class="cls-2" d="M150.71,73.88a6,6,0,0,1-.57-2.56V52.68a14,14,0,0,0-28,0l0,12.95a4.06,4.06,0,0,1-4.06,4.06H117a21,21,0,0,1-4.43,4.2.44.44,0,0,0,.25.81h3.83a10.41,10.41,0,0,0,5.16-1.37,10.55,10.55,0,0,0,5.39-9.07s0-9.55,0-11.36a9.31,9.31,0,0,1,8.9-8.7h.06a9.3,9.3,0,0,1,8.9,8.7c0,3.94.06,16.31.06,16.54,0,3.64,3.22,4.86,5,5.17A.51.51,0,0,0,150.71,73.88Z"/><path class="cls-1" d="M61.07,25h0A6,6,0,0,0,61,24a7.06,7.06,0,0,0-6.53-5.84,11.54,11.54,0,0,1-3.25-.61,12.62,12.62,0,0,1-4.49-2.89,1.42,1.42,0,0,1-.13-.12l-.11-.12A12.79,12.79,0,0,1,43,7c0-.24-.05-.47-.07-.71a6.64,6.64,0,0,0-.27-1.72,6.81,6.81,0,0,0-2.17-3.16,7.34,7.34,0,0,0-8.57-.1,6.87,6.87,0,0,0-.68,10.22,6.8,6.8,0,0,0,4.11,2l.55,0a12.83,12.83,0,0,1,7.63,3.66s.09.08.13.13.08.09.13.13l.06.07a11,11,0,0,1,0,14.86l-.06.07c-.05,0-.08.09-.13.13s-.09.08-.13.13a12.83,12.83,0,0,1-7.63,3.66c-.18,0-.36,0-.55,0A6.87,6.87,0,0,0,31.94,48.7a7.33,7.33,0,0,0,8.57-.09,6.81,6.81,0,0,0,2.17-3.16A6.64,6.64,0,0,0,43,43.73c0-.24,0-.47.07-.71a12.79,12.79,0,0,1,3.46-7.4l.11-.13.13-.11a12.64,12.64,0,0,1,4.49-2.9,11.52,11.52,0,0,1,3.25-.6A7.06,7.06,0,0,0,61,26a6,6,0,0,0,.08-1Z"/><path class="cls-1" d="M0,43.11H0A6.89,6.89,0,0,0,6.62,50a11.47,11.47,0,0,1,3.24.61,12.79,12.79,0,0,1,4.5,2.89l.12.12a1.42,1.42,0,0,1,.12.13,12.82,12.82,0,0,1,3.46,7.39l.06.71a7.09,7.09,0,0,0,.27,1.72,6.83,6.83,0,0,0,2.18,3.16,7.31,7.31,0,0,0,8.56.1A6.86,6.86,0,0,0,25.7,54.57l-.55,0a12.83,12.83,0,0,1-7.63-3.66l-.13-.12-.12-.14-.06-.07a11,11,0,0,1,0-14.86l.06-.06.12-.14.13-.12a12.85,12.85,0,0,1,7.63-3.67l.55,0a6.87,6.87,0,0,0,3.44-12.23,7.34,7.34,0,0,0-8.57.09,7,7,0,0,0-2.18,3.16,7.17,7.17,0,0,0-.27,1.72l-.06.71a12.82,12.82,0,0,1-3.46,7.4,1.42,1.42,0,0,1-.12.13l-.12.11a12.68,12.68,0,0,1-4.5,2.9,11.46,11.46,0,0,1-3.24.6A7.07,7.07,0,0,0,.08,42.1a7,7,0,0,0-.08,1Z"/></g></g></svg>