<svg xmlns="http://www.w3.org/2000/svg" viewBox="0 0 209.34 83.31"><defs><style>.cls-1{fill:#fff;}</style></defs><g id="Camada_2" data-name="Camada 2"><g id="Camada_1-2" data-name="Camada 1"><path class="cls-1" d="M44.45,80V76.85c0-2,1-3.28,3.16-3.28A2.75,2.75,0,0,1,50.24,75a.53.53,0,0,1,.06.24.55.55,0,0,1-.54.55.51.51,0,0,1-.45-.23,1.81,1.81,0,0,0-1.7-.93c-1.46,0-2,.84-2,2.31v2.91c0,1.47.54,2.32,2,2.32a2,2,0,0,0,1.69-.91.56.56,0,0,1,.49-.32.55.55,0,0,1,.54.55.71.71,0,0,1-.09.3,2.87,2.87,0,0,1-2.63,1.48C45.49,83.31,44.45,82,44.45,80Z"/><path class="cls-1" d="M52.28,80V76.85c0-2,1-3.28,3.15-3.28s3.16,1.29,3.16,3.28V80c0,2-1,3.28-3.16,3.28S52.28,82,52.28,80Zm5.15-.14V77c0-1.47-.53-2.31-2-2.31s-2,.84-2,2.31v2.91c0,1.47.54,2.32,2,2.32S57.43,81.36,57.43,79.89Z"/><path class="cls-1" d="M61.38,82.78V74.1a.52.52,0,0,1,.52-.53.52.52,0,0,1,.47.3l4.37,7h.07V74.1a.53.53,0,0,1,1.06,0v8.66a.58.58,0,0,1-.6.55.59.59,0,0,1-.52-.29l-4.24-6.88h-.07v6.64a.53.53,0,0,1-1.06,0Z"/><path class="cls-1" d="M70.65,82.64a.56.56,0,0,1-.29-.49.55.55,0,0,1,.55-.54.64.64,0,0,1,.3.09,3.94,3.94,0,0,0,2,.51c1.42,0,1.88-.72,1.88-1.64,0-2.91-4.55-1.07-4.55-4.46,0-1.63,1-2.54,2.74-2.54a4.09,4.09,0,0,1,2.25.64.59.59,0,0,1,.28.46.51.51,0,0,1-.53.5.77.77,0,0,1-.34-.1,3.76,3.76,0,0,0-1.66-.43c-1.33,0-1.62.7-1.62,1.46,0,2.18,4.56.75,4.56,4.38,0,1.55-.84,2.83-3,2.83A4.76,4.76,0,0,1,70.65,82.64Z"/><path class="cls-1" d="M78.73,80.21V74.13a.56.56,0,0,1,.57-.56.58.58,0,0,1,.59.58v5.92c0,1.28.41,2.14,1.94,2.14s2-.86,2-2.14V74.13a.56.56,0,0,1,.57-.56.58.58,0,0,1,.58.58v6.06a3.1,3.1,0,0,1-6.2,0Z"/><path class="cls-1" d="M88.07,82.63V74.15a.57.57,0,0,1,.57-.58.58.58,0,0,1,.58.58v8h3.24a.53.53,0,0,1,0,1.06H88.61A.56.56,0,0,1,88.07,82.63Z"/><path class="cls-1" d="M95.89,82.7v-8H93.77a.51.51,0,0,1-.53-.53.51.51,0,0,1,.53-.53h5.38a.5.5,0,0,1,.53.53.51.51,0,0,1-.53.53H97v8a.57.57,0,0,1-.58.57A.59.59,0,0,1,95.89,82.7Z"/><path class="cls-1" d="M101.47,80V76.85c0-2,1-3.28,3.15-3.28s3.16,1.29,3.16,3.28V80c0,2-1,3.28-3.16,3.28S101.47,82,101.47,80Zm5.15-.14V77c0-1.47-.53-2.31-2-2.31s-2,.84-2,2.31v2.91c0,1.47.54,2.32,2,2.32S106.62,81.36,106.62,79.89Z"/><path class="cls-1" d="M110.57,82.74V74.26a.58.58,0,0,1,.57-.58h2.07c2,0,3.2.79,3.2,2.9a2.55,2.55,0,0,1-1.79,2.72l1.65,3.08a.75.75,0,0,1,.1.34.58.58,0,0,1-.59.59.61.61,0,0,1-.56-.38l-1.74-3.46h-1.75v3.29a.58.58,0,0,1-1.16,0Zm2.71-4.33c1.24,0,1.94-.47,1.94-1.83s-.73-1.84-2.09-1.84h-1.4v3.67Z"/><path class="cls-1" d="M119.16,82.74V74.15a.58.58,0,1,1,1.15,0v8.59a.59.59,0,0,1-.58.57A.58.58,0,0,1,119.16,82.74Z"/><path class="cls-1" d="M122.74,82.74a.87.87,0,0,1,.05-.28l2.73-8.33a.56.56,0,0,1,.56-.45h.25a.54.54,0,0,1,.55.45l2.74,8.36a.74.74,0,0,1,0,.25.57.57,0,0,1-.58.57.6.6,0,0,1-.56-.44l-.64-2h-3.37l-.64,2a.6.6,0,0,1-.57.44A.56.56,0,0,1,122.74,82.74Zm4.86-3-1.37-4.4h0l-1.38,4.4Z"/><path class="cls-1" d="M135.61,80.74a2.53,2.53,0,0,1,1.85-2.67l-.42-.5a2.8,2.8,0,0,1-.74-1.8,2.26,2.26,0,0,1,2.49-2.2,4.09,4.09,0,0,1,1.92.46.56.56,0,0,1,.31.49.54.54,0,0,1-.54.53.91.91,0,0,1-.29-.08,3.45,3.45,0,0,0-1.4-.31c-.83,0-1.36.43-1.36,1.11A1.92,1.92,0,0,0,138,77l3,3.44a5.18,5.18,0,0,0,.58-1.91.52.52,0,0,1,.52-.46.5.5,0,0,1,.52.52,6,6,0,0,1-.92,2.71l.93,1a.61.61,0,0,1,.16.4.52.52,0,0,1-.54.53.56.56,0,0,1-.44-.21l-.72-.87a3.06,3.06,0,0,1-2.62,1.08A2.56,2.56,0,0,1,135.61,80.74Zm4.85.72-2.34-2.64a1.68,1.68,0,0,0-1.38,1.81,1.54,1.54,0,0,0,1.75,1.63A2.24,2.24,0,0,0,140.46,81.46Z"/><path class="cls-1" d="M149,82.64a.56.56,0,0,1-.29-.49.55.55,0,0,1,.55-.54.64.64,0,0,1,.3.09,3.94,3.94,0,0,0,2,.51c1.42,0,1.88-.72,1.88-1.64,0-2.91-4.56-1.07-4.56-4.46,0-1.63,1-2.54,2.75-2.54a4.09,4.09,0,0,1,2.25.64.59.59,0,0,1,.28.46.51.51,0,0,1-.53.5.77.77,0,0,1-.34-.1,3.76,3.76,0,0,0-1.66-.43c-1.33,0-1.62.7-1.62,1.46,0,2.18,4.56.75,4.56,4.38,0,1.55-.84,2.83-3,2.83A4.76,4.76,0,0,1,149,82.64Z"/><path class="cls-1" d="M157.12,82.74V74.15a.58.58,0,1,1,1.16,0v8.59a.59.59,0,0,1-.59.57A.58.58,0,0,1,157.12,82.74Z"/><path class="cls-1" d="M161.05,82.64a.58.58,0,0,1-.28-.49.54.54,0,0,1,.54-.54.61.61,0,0,1,.3.09,4,4,0,0,0,2,.51c1.41,0,1.88-.72,1.88-1.64,0-2.91-4.56-1.07-4.56-4.46,0-1.63,1-2.54,2.75-2.54a4,4,0,0,1,2.24.64.6.6,0,0,1,.29.46.51.51,0,0,1-.53.5.77.77,0,0,1-.34-.1,3.76,3.76,0,0,0-1.66-.43c-1.34,0-1.62.7-1.62,1.46,0,2.18,4.55.75,4.55,4.38a2.65,2.65,0,0,1-3,2.83A4.82,4.82,0,0,1,161.05,82.64Z"/><path class="cls-1" d="M170.84,82.7v-8h-2.13a.52.52,0,0,1-.53-.53.52.52,0,0,1,.53-.53h5.39a.5.5,0,0,1,.53.53.52.52,0,0,1-.53.53H172v8a.58.58,0,1,1-1.15,0Z"/><path class="cls-1" d="M177,82.63V74.26a.59.59,0,0,1,.61-.58h3.82a.53.53,0,0,1,0,1.06h-3.28v3.07h3a.53.53,0,0,1,0,1.06h-3v3.27h3.28a.53.53,0,0,1,0,1.06H177.6A.58.58,0,0,1,177,82.63Z"/><path class="cls-1" d="M184.58,82.78V74.06a.49.49,0,0,1,.49-.49.51.51,0,0,1,.45.3l3,5.82,3-5.82a.54.54,0,0,1,.47-.3.48.48,0,0,1,.49.48v8.73a.53.53,0,0,1-1.06,0V76.49h-.07l-2.34,4.66a.48.48,0,0,1-.44.25.46.46,0,0,1-.43-.25l-2.34-4.66h-.07v6.29a.53.53,0,0,1-1.06,0Z"/><path class="cls-1" d="M194.81,82.74a.88.88,0,0,1,.06-.28l2.73-8.33a.55.55,0,0,1,.56-.45h.24a.55.55,0,0,1,.56.45l2.73,8.36a.76.76,0,0,1,.06.25.57.57,0,0,1-.59.57.59.59,0,0,1-.55-.44l-.64-2h-3.38l-.64,2a.58.58,0,0,1-.57.44A.57.57,0,0,1,194.81,82.74Zm4.87-3-1.37-4.4h-.06l-1.37,4.4Z"/><path class="cls-1" d="M203.82,82.64a.56.56,0,0,1-.29-.49.55.55,0,0,1,.55-.54.61.61,0,0,1,.3.09,4,4,0,0,0,2,.51c1.41,0,1.87-.72,1.87-1.64,0-2.91-4.55-1.07-4.55-4.46,0-1.63,1-2.54,2.74-2.54a4,4,0,0,1,2.25.64.59.59,0,0,1,.28.46.51.51,0,0,1-.53.5.81.81,0,0,1-.34-.1,3.76,3.76,0,0,0-1.66-.43c-1.33,0-1.61.7-1.61,1.46,0,2.18,4.55.75,4.55,4.38a2.65,2.65,0,0,1-3,2.83A4.77,4.77,0,0,1,203.82,82.64Z"/><path class="cls-1" d="M81.73,50.51a5.92,5.92,0,1,1,4.41,4.4A5.93,5.93,0,0,1,81.73,50.51Z"/><path class="cls-1" d="M103,47.6a4.46,4.46,0,0,0-.07-.51c0-.32-.08-.65-.15-1s-.09-.39-.13-.59-.14-.56-.22-.84-.13-.42-.2-.62-.18-.5-.28-.75-.17-.43-.27-.64-.21-.44-.32-.66-.22-.44-.34-.65-.23-.38-.35-.57-.28-.45-.43-.67l-.33-.44c-.18-.24-.36-.48-.55-.71l-.16-.17a15.77,15.77,0,0,0-3.92-3.26l-.08,0c-.36-.21-.73-.4-1.1-.58l-.14-.07c-.37-.17-.75-.33-1.13-.47l-.15,0a12,12,0,0,0-1.2-.39l-.1,0a15.14,15.14,0,0,0-4-.54h0a17.18,17.18,0,0,0-2.65.2h0l-.41.07h0a15.5,15.5,0,0,0-2.16.56h0l-.12,0h0a15.45,15.45,0,0,0-2.18,1h0c-.32.19-.64.39-1,.6h0l0,0c-.49.35-1,.71-1.42,1.11a15.64,15.64,0,0,0-3.27,3.66,55.82,55.82,0,0,0-3.88,6.56l0,0-1.22,2.35-.13.23-.4.77c-.29.56-.59,1.11-.9,1.66,0,.09-.09.18-.14.27-.34.61-.69,1.22-1.05,1.81h0l-.06.11c-.38.63-.78,1.25-1.19,1.85l-.08.11a11,11,0,0,1-2.5,2.13,12.31,12.31,0,0,1-5.92,1.67A11.09,11.09,0,0,1,45.49,48.61,11.41,11.41,0,0,1,57,38l8.07,0a1.58,1.58,0,0,0,1.57-1.58V35.24a1.63,1.63,0,0,0-1.62-1.63H56.58A15.53,15.53,0,0,0,41.07,49.12h0A15.52,15.52,0,0,0,56.58,64.64a15.77,15.77,0,0,0,6.73-1.51,13.49,13.49,0,0,0,4.88-3.63l.31-.32h0c.35-.48.69-1,1-1.48h0c.16-.25.31-.51.46-.77h0l0,0c.35-.59.7-1.19,1-1.8a.05.05,0,0,1,0,0l.24-.45h0c.23-.43.45-.87.67-1.3a1.09,1.09,0,0,1,.08-.15l0-.05c.53-1,1.05-2.1,1.57-3.15.18-.37.37-.74.56-1.11l.09-.18a32.49,32.49,0,0,1,4.09-6.44h0a13.51,13.51,0,0,1,1-1.09h0c.37-.34.75-.67,1.15-1,.15-.11.3-.23.46-.33s.42-.29.64-.42a10.46,10.46,0,0,1,.94-.49,6.57,6.57,0,0,1,.61-.26c.33-.13.68-.25,1-.36l.53-.13a12,12,0,0,1,1.52-.27h0c.32,0,.66,0,1,0h0a11,11,0,0,1,2.71.35,11.11,11.11,0,0,1,4.12,2l.07,0c.21.16.41.33.61.51l.15.14c.18.17.35.34.52.52l.18.19c.16.17.31.35.46.54l.16.21a12,12,0,0,1,.7,1,3.45,3.45,0,0,1,.2.32c.08.14.15.29.22.44l.24.49c.06.14.11.29.17.43s.14.36.2.55.09.28.13.43.11.4.16.6l.09.41c0,.23.07.47.1.7s0,.24,0,.36c0,.35.06.71.06,1.08A11.32,11.32,0,0,1,76.39,52a.38.38,0,0,0-.7-.07l-2,4a1.09,1.09,0,0,0,0,1,15.73,15.73,0,0,0,29.36-7.81C103.06,48.61,103,48.1,103,47.6Z"/><path class="cls-1" d="M150.52,33.87H142A8.91,8.91,0,0,0,133.7,45a9.15,9.15,0,0,0,8.94,6.64h6.3a4.34,4.34,0,0,1,4.51,4.4A4.57,4.57,0,0,1,150,60.49h0l-16.9,0a.47.47,0,0,0-.46.46v.9a2.94,2.94,0,0,0,2.93,2.94h13.38a8.8,8.8,0,0,0,8.93-9.17,9.11,9.11,0,0,0-9.22-8.44h-6.11a4.64,4.64,0,0,1-4.67-3.89,4.48,4.48,0,0,1,4.18-5H159.1A10.78,10.78,0,0,0,150.52,33.87Z"/><path class="cls-1" d="M179.37,35.54l-5.92,11.22a1.19,1.19,0,0,1-2.11,0L165.41,35.5a3.07,3.07,0,0,0-2.71-1.63h-4.32a.18.18,0,0,0-.11.32A13.34,13.34,0,0,1,162,38.52l7.83,13.56a2.27,2.27,0,0,1,.31,1.14v10a1.67,1.67,0,0,0,1.66,1.66H173a1.67,1.67,0,0,0,1.66-1.66v-10a2.25,2.25,0,0,1,.3-1.13l7.84-13.56a13.08,13.08,0,0,1,3.72-4.34.17.17,0,0,0-.1-.31h-4.31A3.11,3.11,0,0,0,179.37,35.54Z"/><path class="cls-1" d="M200.47,47.14h-6.7a4.47,4.47,0,0,1-.25-8.93h13.93a1.61,1.61,0,0,0,1.6-1.61V35.46a1.66,1.66,0,0,0-1.63-1.66h-13.9a8.91,8.91,0,0,0-8.63,8.87,9,9,0,0,0,8.88,8.94h7.69a4.51,4.51,0,0,1,3.48,4.4,4.58,4.58,0,0,1-3.48,4.41h-14a1.61,1.61,0,0,0-1.57,1.6v1.14a1.66,1.66,0,0,0,1.57,1.65h12.91a8.85,8.85,0,1,0,.06-17.69Z"/><path class="cls-1" d="M130.79,64.11a5.12,5.12,0,0,1-.49-2.22V45.72a12.17,12.17,0,0,0-24.32,0L106,57a3.53,3.53,0,0,1-3.52,3.52h-1a18,18,0,0,1-3.85,3.64.39.39,0,0,0,.22.71h3.32a9.08,9.08,0,0,0,4.48-1.19,9.18,9.18,0,0,0,4.68-7.88s0-8.28,0-9.85a8.07,8.07,0,0,1,7.73-7.55h.05a8.07,8.07,0,0,1,7.72,7.55c0,3.42,0,14.15,0,14.36,0,3.15,2.79,4.21,4.37,4.48A.45.45,0,0,0,130.79,64.11Z"/><path class="cls-1" d="M53,21.71h0a5.3,5.3,0,0,0-.07-.88,6.13,6.13,0,0,0-5.67-5.07,10,10,0,0,1-2.82-.53,11,11,0,0,1-3.9-2.51l-.11-.1-.1-.11a11.16,11.16,0,0,1-3-6.42c0-.2,0-.41,0-.61A5.8,5.8,0,0,0,37,4a6,6,0,0,0-1.88-2.74,6.37,6.37,0,0,0-7.44-.08A6,6,0,0,0,27.13,10a5.89,5.89,0,0,0,3.57,1.75l.48,0A11.1,11.1,0,0,1,37.79,15l.12.11.11.12,0,.06a9.53,9.53,0,0,1,0,12.89l0,.06-.11.12-.12.1a11,11,0,0,1-6.61,3.18c-.16,0-.32,0-.48,0a6,6,0,0,0-3,10.61,6.32,6.32,0,0,0,7.43-.08A5.92,5.92,0,0,0,37,39.44,5.73,5.73,0,0,0,37.28,38c0-.21,0-.41,0-.62a11.14,11.14,0,0,1,3-6.41l.1-.12a.52.52,0,0,0,.11-.1,11.14,11.14,0,0,1,3.9-2.51,10,10,0,0,1,2.82-.52,6.13,6.13,0,0,0,5.67-5.08,5.22,5.22,0,0,0,.07-.88Z"/><path class="cls-1" d="M0,37.42H0a5.39,5.39,0,0,0,.07.88,6.13,6.13,0,0,0,5.67,5.07,10,10,0,0,1,2.82.52,11.14,11.14,0,0,1,3.9,2.51l.11.11a1.09,1.09,0,0,1,.1.11,11.1,11.1,0,0,1,3,6.42l.06.61a6.33,6.33,0,0,0,.23,1.5,6,6,0,0,0,1.89,2.74,6.35,6.35,0,0,0,7.43.08,6,6,0,0,0,.59-8.86,5.89,5.89,0,0,0-3.57-1.75l-.47,0a11.11,11.11,0,0,1-6.62-3.17L15.09,44l-.1-.12-.06-.06a9.56,9.56,0,0,1,0-12.89l.06-.06.1-.12.12-.11a11.11,11.11,0,0,1,6.62-3.17l.47,0a5.89,5.89,0,0,0,3.57-1.75,6,6,0,0,0-.58-8.86,6.37,6.37,0,0,0-7.44.08A6,6,0,0,0,16,19.68a6.26,6.26,0,0,0-.23,1.5l-.06.61a11.1,11.1,0,0,1-3,6.42,1.09,1.09,0,0,1-.1.11l-.11.11a11.14,11.14,0,0,1-3.9,2.51,10,10,0,0,1-2.82.52A6.13,6.13,0,0,0,.07,36.53a5.42,5.42,0,0,0-.07.89Z"/></g></g></svg>